<?xml version="1.0" standalone="no"?><!DOCTYPE svg PUBLIC "-//W3C//DTD SVG 1.1//EN" "http://www.w3.org/Graphics/SVG/1.1/DTD/svg11.dtd"><svg t="1597719411952" class="icon" viewBox="0 0 1024 1024" version="1.1" xmlns="http://www.w3.org/2000/svg" p-id="1356" xmlns:xlink="http://www.w3.org/1999/xlink" width="200" height="200"><defs><style type="text/css"></style></defs><path d="M425.472 0L313.344 193.024l74.752 43.008 87.552-151.04h70.656l87.04 149.504 74.752-43.008L594.944 0H425.472z m348.672 477.184l92.16 158.72-38.912 67.072H652.8v84.48h224.256l88.576-152.576-116.736-200.704-74.752 43.008zM53.76 635.904l88.576 152.576h227.328V704H192l-38.912-68.096 92.16-157.184-74.752-43.008L53.76 635.904z" fill="#FFFFFF" p-id="1357"></path><path d="M668.672 634.368c47.104 0 76.288-50.176 52.736-90.112L650.24 421.888l371.712-80.896-123.904-77.824-6.656-145.408-257.536 277.504L563.2 273.92a61.44 61.44 0 0 0-105.472 0l-70.144 120.32L130.56 117.248l-6.656 145.408L0 339.968l371.2 81.92-71.68 122.368c-23.552 39.936 5.632 90.112 52.736 90.112h137.216L381.44 975.872l129.536-67.072 130.048 67.072L532.48 634.368h136.192z" fill="#FFFFFF" p-id="1358"></path></svg>