<?xml version="1.0" standalone="no"?><!DOCTYPE svg PUBLIC "-//W3C//DTD SVG 1.1//EN" "http://www.w3.org/Graphics/SVG/1.1/DTD/svg11.dtd"><svg t="1597729708517" class="icon" viewBox="0 0 1024 1024" version="1.1" xmlns="http://www.w3.org/2000/svg" p-id="2485" xmlns:xlink="http://www.w3.org/1999/xlink" width="200" height="200"><defs><style type="text/css"></style></defs><path d="M813.042834 682.934857a121.929143 121.929143 0 0 0-85.942857-34.816 121.856 121.856 0 0 0-111.177143 72.630857c-6.363429 14.482286-9.508571 29.842286-9.508571 46.299429 0 16.457143 3.145143 31.963429 9.508571 46.372571a120.32 120.32 0 0 0 111.177143 73.142857 120.539429 120.539429 0 0 0 111.762286-73.142857c6.363429-14.409143 9.508571-29.915429 9.508571-46.372571a119.222857 119.222857 0 0 0-35.254857-84.114286h-0.073143z m130.633143 117.467429a57.782857 57.782857 0 0 0 26.989714 19.968c2.56 1.462857 4.827429 2.925714 6.582858 4.388571a23.917714 23.917714 0 0 1 8.338285 12.580572 47.177143 47.177143 0 0 1-0.512 15.945142 95.085714 95.085714 0 0 1-15.067428 36.132572 34.084571 34.084571 0 0 1-12.141715 10.971428 27.062857 27.062857 0 0 1-11.702857 3.291429 33.206857 33.206857 0 0 1-11.117714-2.194286 116.882286 116.882286 0 0 0-13.897143-2.998857 65.682286 65.682286 0 0 0-16.969143-0.512c-5.851429 0.512-11.629714 1.755429-17.188571 3.510857a33.718857 33.718857 0 0 0-14.701714 9.362286 53.686857 53.686857 0 0 0-15.579429 31.232 60.854857 60.854857 0 0 0 4.900571 33.426286 20.48 20.48 0 0 1-1.609142 21.942857 41.252571 41.252571 0 0 1-10.532572 9.069714 99.766857 99.766857 0 0 1-50.541714 16.749714 14.262857 14.262857 0 0 1-9.581714-3.876571 20.699429 20.699429 0 0 1-6.070858-8.265143h-0.585142a67.657143 67.657143 0 0 0-20.772572-29.257143 53.174857 53.174857 0 0 0-68.388571 0 66.633143 66.633143 0 0 0-21.430857 28.745143 18.870857 18.870857 0 0 1-8.338286 9.508572 25.234286 25.234286 0 0 1-12.214857 3.145142 65.316571 65.316571 0 0 1-17.554286-2.779428 166.838857 166.838857 0 0 1-19.456-6.802286 92.964571 92.964571 0 0 1-17.554286-9.654857 48.128 48.128 0 0 1-11.702857-10.971429 16.530286 16.530286 0 0 1-2.998857-9.069714 32.987429 32.987429 0 0 1 4.169143-14.482286 54.125714 54.125714 0 0 0 4.754286-28.818285 49.444571 49.444571 0 0 0-14.189715-29.842286 36.205714 36.205714 0 0 0-18.944-10.752 77.750857 77.750857 0 0 0-21.065143-1.901714 94.500571 94.500571 0 0 0-23.990857 4.388571 22.893714 22.893714 0 0 1-15.579428-1.097143 24.283429 24.283429 0 0 1-11.264-10.093714 111.616 111.616 0 0 1-15.945143-37.302857 45.348571 45.348571 0 0 1-1.097143-16.749714c1.097143-8.045714 4.827429-13.165714 11.117714-15.36 11.629714-4.754286 21.942857-12.141714 29.988572-21.650286a49.664 49.664 0 0 0 13.458285-33.645714 47.542857 47.542857 0 0 0-13.458285-33.499429 82.285714 82.285714 0 0 0-29.988572-20.845714c-3.364571-1.097143-6.070857-3.657143-8.265143-7.899429a27.209143 27.209143 0 0 1-3.364571-12.873143c0-4.827429 0.731429-10.093714 2.194286-15.872 2.925714-11.410286 7.753143-22.235429 14.189714-32.109714a33.426286 33.426286 0 0 1 10.24-10.24 13.019429 13.019429 0 0 1 8.704-2.194286 50.176 50.176 0 0 1 9.069714 2.267429c10.971429 4.388571 23.04 5.851429 34.742857 4.096a56.832 56.832 0 0 0 32.036572-15.579429 38.765714 38.765714 0 0 0 9.728-16.237714c3.803429-11.556571 5.12-23.771429 3.876571-35.84-0.365714-3.657143-0.731429-7.314286-1.389714-10.971429a58.221714 58.221714 0 0 1-1.974857-7.68 11.776 11.776 0 0 1 0.877714-7.68 31.597714 31.597714 0 0 1 11.922286-13.458285c5.705143-3.803429 11.922286-7.021714 18.578286-9.581715 6.802286-2.56 13.238857-4.461714 19.456-5.778285 4.973714-1.097143 10.020571-1.755429 15.067428-1.901715a14.628571 14.628571 0 0 1 11.410286 4.681143 27.721143 27.721143 0 0 1 5.851428 9.508572c4.315429 10.24 11.190857 19.236571 19.968 26.112a50.614857 50.614857 0 0 0 32.914286 11.190857 58.075429 58.075429 0 0 0 34.377143-10.678857 57.270857 57.270857 0 0 0 21.138286-27.062857 35.84 35.84 0 0 1 6.875428-9.069715c3.218286-3.072 6.509714-4.681143 9.801143-4.681143 5.12 0 10.898286 0.731429 16.896 2.194286 6.144 1.462857 12.141714 3.364571 18.212572 5.924572 5.851429 2.56 11.410286 5.851429 16.384 9.947428 4.681143 3.657143 8.704 8.192 11.849142 13.165714a12.434286 12.434286 0 0 1 1.755429 9.581715 33.206857 33.206857 0 0 1-2.194286 7.460571 57.490286 57.490286 0 0 0-4.534857 33.426286c1.828571 11.702857 7.533714 22.528 16.091429 30.72 8.923429 8.777143 19.968 13.604571 32.914285 14.482286a73.142857 73.142857 0 0 0 36.059429-6.290286 17.334857 17.334857 0 0 1 10.898286-2.194286c4.315429 0.292571 7.753143 2.048 10.752 4.900572 5.558857 5.12 10.459429 12.873143 14.701714 23.332571 4.388571 10.386286 7.168 20.918857 8.704 31.597714 0.731429 6.144-0.292571 10.971429-3.072 14.482286a20.699429 20.699429 0 0 1-8.630857 6.802286 65.170286 65.170286 0 0 0-29.403429 21.065143 52.882286 52.882286 0 0 0-12.288 34.377142c0 12.361143 3.510857 23.259429 10.24 32.548572v0.073143zM122.574263 384c0 23.552 19.382857 42.642286 43.227428 42.642286h172.909715a42.934857 42.934857 0 0 0 43.227428-42.642286 42.934857 42.934857 0 0 0-43.154285-42.642286H165.728549a42.934857 42.934857 0 0 0-43.154286 42.642286z m0-170.642286c0 23.552 19.382857 42.642286 43.227428 42.642286h432.274286a42.934857 42.934857 0 0 0 43.227429-42.642286 42.934857 42.934857 0 0 0-43.154286-42.715428h-432.274286a42.934857 42.934857 0 0 0-43.300571 42.715428z m778.093714 216.502857a26.550857 26.550857 0 0 1-37.156571 24.064c-158.646857-67.291429-346.697143-8.338286-435.346286 142.848a337.773714 337.773714 0 0 0 29.915429 385.024 25.819429 25.819429 0 0 1-20.187429 42.203429H62.304549A25.965714 25.965714 0 0 1 36.119406 998.180571V25.819429C36.119406 11.556571 47.822263 0 62.304549 0h812.251428c14.409143 0 26.112 11.556571 26.112 25.819429v403.968z" fill="#FFFFFF" p-id="2486"></path></svg>