<?xml version="1.0" standalone="no"?><!DOCTYPE svg PUBLIC "-//W3C//DTD SVG 1.1//EN" "http://www.w3.org/Graphics/SVG/1.1/DTD/svg11.dtd"><svg t="1597729719945" class="icon" viewBox="0 0 1024 1024" version="1.1" xmlns="http://www.w3.org/2000/svg" p-id="2735" xmlns:xlink="http://www.w3.org/1999/xlink" width="200" height="200"><defs><style type="text/css"></style></defs><path d="M508.057743 595.885356c-44.534436 0-80.746043-38.766862-80.746043-86.586625 0-47.892771 36.1386-86.659632 80.746043-86.659632 44.607443 0 80.746043 38.766862 80.746043 86.659632 0 47.819763-36.1386 86.586625-80.746043 86.586625m0-259.905889c-89.141879 0-161.492086 77.60673-161.492086 173.319264 0 95.712534 72.277199 173.319264 161.492086 173.319264 89.214887 0 161.565093-77.60673 161.565093-173.319264 0-95.712534-72.277199-173.319264-161.565093-173.319264" fill="#FFFFFF" p-id="2736"></path><path d="M938.727642 519.446742l-0.073008 0.584058-0.146014 0.80308-0.073007 1.022102v0.073007a37.233709 37.233709 0 0 1-8.979895 19.492942c-9.052902 11.754171-18.981891 22.778269-28.837872 33.583345-53.660345 58.551832-115.35149 110.679025-182.737203 148.496792-43.074291 24.165407-89.068872 43.731356-136.888635 53.076286-52.492229 10.294025-105.057465 9.782974-157.330672-2.409239-90.383003-21.099102-172.224155-73.518323-243.844289-136.085556-33.218309-29.129902-65.925567-60.961072-93.376301-96.661628a38.985883 38.985883 0 0 1 0-49.79096c9.052902-11.754171 18.981891-22.851276 28.837872-33.583345 53.660345-58.551832 115.278483-110.679025 182.737203-148.496792 43.074291-24.165407 89.068872-43.731356 136.888635-53.076287a370.657921 370.657921 0 0 1 157.257664 2.40924c90.383003 21.099102 172.224155 73.518323 243.84429 136.158563 33.218309 29.056894 65.925567 60.888065 93.376301 96.588621a36.649651 36.649651 0 0 1 9.052902 19.565949l0.146014 1.022102v0.876087l0.073007 0.584058 0.073008 1.168117 0.073007 1.752174V518.351633 518.351633l-0.073007 1.168116M510.247961 5.475545a509.225724 509.225724 0 1 0 0 1018.451448 509.225724 509.225724 0 0 0 0-1018.451448" fill="#FFFFFF" p-id="2737"></path></svg>