<?xml version="1.0" standalone="no"?><!DOCTYPE svg PUBLIC "-//W3C//DTD SVG 1.1//EN" "http://www.w3.org/Graphics/SVG/1.1/DTD/svg11.dtd"><svg t="1597729696349" class="icon" viewBox="0 0 1024 1024" version="1.1" xmlns="http://www.w3.org/2000/svg" p-id="2235" xmlns:xlink="http://www.w3.org/1999/xlink" width="200" height="200"><defs><style type="text/css"></style></defs><path d="M204.792686 887.410592h614.378058a68.312989 68.312989 0 1 1 0 136.552838H204.792686a68.312989 68.312989 0 1 1 0-136.552838z m143.501161-444.400128l63.412592-127.483447 141.599514 259.79415c27.354452 49.881647 89.889361 52.514696 122.875612 6.582622l87.036891-121.120246h90.035642a51.198171 51.198171 0 0 0 0-102.396343h-116.292989a51.198171 51.198171 0 0 0-41.6168 21.283812L620.302418 484.188422 470.584336 209.766223c-28.524696-52.368415-95.009178-51.490732-121.778508 2.194207L270.692047 368.919396h-81.917075a51.198171 51.198171 0 0 0 0 102.396343h113.513661a51.198171 51.198171 0 0 0 45.932073-28.305275zM68.312989 0h887.337452c37.740366 0 68.312989 30.572622 68.312989 68.312989V716.774401a68.239849 68.239849 0 0 1-68.312989 68.239848H68.312989A68.239849 68.239849 0 0 1 0 716.774401V68.312989C0 30.499482 30.572622 0 68.312989 0z" fill="#FFFFFF" p-id="2236"></path></svg>