<?xml version="1.0" standalone="no"?><!DOCTYPE svg PUBLIC "-//W3C//DTD SVG 1.1//EN" "http://www.w3.org/Graphics/SVG/1.1/DTD/svg11.dtd"><svg t="1597729701907" class="icon" viewBox="0 0 1024 1024" version="1.1" xmlns="http://www.w3.org/2000/svg" p-id="2360" xmlns:xlink="http://www.w3.org/1999/xlink" width="200" height="200"><defs><style type="text/css"></style></defs><path d="M184.612571 767.926857h142.628572a24.722286 24.722286 0 0 0 24.722286-24.722286V664.868571a24.722286 24.722286 0 0 0-24.722286-24.722285h-142.628572a24.722286 24.722286 0 0 0-24.649142 24.722285v78.409143c0 13.677714 10.971429 24.722286 24.649142 24.722286z m8.923429-191.926857h124.781714a33.645714 33.645714 0 0 0 33.645715-33.645714v-60.708572a33.645714 33.645714 0 0 0-33.645715-33.645714H193.536a33.645714 33.645714 0 0 0-33.645714 33.645714v60.708572c0 18.578286 15.067429 33.645714 33.645714 33.645714z m5.339429-192h114.102857a38.985143 38.985143 0 0 0 38.985143-38.985143v-50.029714a38.985143 38.985143 0 0 0-38.985143-38.985143h-114.102857a38.985143 38.985143 0 0 0-38.912 38.985143v50.029714c0 21.504 17.408 38.985143 38.912 38.985143z m286.427428 383.926857h309.394286a37.302857 37.302857 0 0 0 37.302857-37.302857v-53.248a37.302857 37.302857 0 0 0-37.302857-37.302857h-309.394286a37.302857 37.302857 0 0 0-37.302857 37.302857v53.248c0 20.626286 16.676571 37.302857 37.302857 37.302857zM477.622857 576h324.608a29.696 29.696 0 0 0 29.696-29.696v-68.534857a29.696 29.696 0 0 0-29.696-29.696H477.622857a29.696 29.696 0 0 0-29.696 29.696v68.534857c0 16.457143 13.312 29.696 29.696 29.696zM474.550857 384h330.898286c14.628571 0 26.550857-11.849143 26.550857-26.477714V282.550857c0-14.628571-11.849143-26.550857-26.550857-26.550857H474.550857c-14.628571 0-26.550857 11.849143-26.550857 26.550857v74.898286c0 14.628571 11.849143 26.477714 26.550857 26.477714zM0 127.561143A127.780571 127.780571 0 0 1 127.634286 0h768.731428C966.875429 0 1024 57.124571 1024 127.634286v768.731428A127.780571 127.780571 0 0 1 896.365714 1024H127.634286A127.488 127.488 0 0 1 0 896.731429V127.561143z" fill="#FFFFFF" p-id="2361"></path></svg>