<?xml version="1.0" standalone="no"?><!DOCTYPE svg PUBLIC "-//W3C//DTD SVG 1.1//EN" "http://www.w3.org/Graphics/SVG/1.1/DTD/svg11.dtd"><svg t="1597729725856" class="icon" viewBox="0 0 1102 1024" version="1.1" xmlns="http://www.w3.org/2000/svg" p-id="2861" xmlns:xlink="http://www.w3.org/1999/xlink" width="215.234375" height="200"><defs><style type="text/css"></style></defs><path d="M753.60603 701.228521c1.102684-57.575879 52.535036-103.416045 114.836705-102.392124 60.647642 1.102684 109.638336 46.312745 110.74102 102.392124H753.60603z m142.718868 172.885163v45.525113c0.630105 15.280055-12.365818 28.118452-28.906084 28.669795-16.540266 0.551342-30.402584-11.42066-31.03269-26.779479a24.416583 24.416583 0 0 1 0-1.890316v-45.525113c-26.385663-15.280055-34.419506-47.494193-17.87924-71.910777 16.540266-24.416583 51.432351-31.820322 77.818014-16.540266 26.464426 15.280055 34.419506 47.494193 17.87924 71.910776a54.504115 54.504115 0 0 1-17.87924 16.540267z m156.975002-172.885163h-24.731636c0-82.780094-72.619645-149.886316-162.252134-149.886317-89.474963 0-162.094608 67.106223-162.094609 149.886317h-24.731636c-27.252058 0-49.384509 20.478425-49.384508 45.603877v231.484962c0 25.204215 22.053688 45.603877 49.384508 45.603877h373.810015c27.252058 0 49.384509-20.478425 49.384509-45.68264V746.911161c0-25.204215-22.053688-45.68264-49.384509-45.68264z" fill="#FFFFFF" p-id="2862"></path><path d="M571.820629 656.963618c0.078763-107.117914 69.78417-202.578879 174.224137-238.809938a54.661641 54.661641 0 0 0 37.176217-46.233982 650.189985 650.189985 0 0 0-7.718791-166.741635C755.023767 84.985463 637.666641 4.883317 515.347435 4.883317 393.106992 4.883317 275.986155 84.985463 255.271441 204.784247c-20.793477 119.877548-11.18437 273.071918 69.075302 373.17991 68.130144 84.749173 14.41366 162.64595-22.84132 189.976771-40.956849 30.560111-57.733405 34.104454-136.417814 67.106222-33.789401 14.177371-86.009384 33.395585-114.679179 54.582878-28.197216 19.769556-46.470272 50.093377-50.17214 83.488963A46.706561 46.706561 0 0 0 47.888009 1023.921237h474.784401c27.173294 0 49.226983-21.266056 49.226982-47.494193V656.963618z" fill="#FFFFFF" p-id="2863"></path></svg>